<svg width="40" height="40" viewBox="0 0 40 40" fill="none" xmlns="http://www.w3.org/2000/svg">
<path d="M35.7361 12.4928C33.4993 8.6409 27.9073 8.6409 25.6704 12.4928L22.3481 18.214H29.0059C32.9575 18.214 35.9415 20.9906 36.695 24.3685L37.5124 22.9609C38.8436 20.6685 38.8436 17.8441 37.5124 15.5516L35.7361 12.4928Z" fill="#BB6BD9"></path>
<path d="M24.1968 35.6817C26.7309 33.3393 27.6369 29.4061 25.6718 26.022L22.3218 20.2532L29.0058 20.2533C33.4794 20.2533 36.2754 25.0681 34.0386 28.92L31.8557 32.6792C30.777 34.5367 28.7836 35.6811 26.6263 35.6814L24.1968 35.6817Z" fill="#EB5757"></path>
<path d="M8.03516 30.5862C11.3518 31.6203 15.2559 30.438 17.2294 27.0395L20.5618 21.301L23.8954 27.0416C26.1326 30.8941 23.3354 35.7096 18.8611 35.7084L14.4942 35.7073C12.3371 35.7067 10.3441 34.5623 9.2656 32.705L8.03516 30.5862Z" fill="#F2994A"></path>
<path d="M4.4286 14.1442L3.61121 15.5518C2.27999 17.8442 2.27999 20.6686 3.61121 22.961L5.3875 26.0199C7.62431 29.8718 13.2163 29.8718 15.4531 26.0199L18.7856 20.2812H12.1137C8.16902 20.2812 5.18842 17.5142 4.4286 14.1442Z" fill="#F2C94C"></path>
<path d="M7.0316 9.66181C6.87441 9.94294 6.7437 10.2289 6.63818 10.5175C6.744 10.2281 6.87514 9.94141 7.03292 9.65955L7.0316 9.66181Z" fill="#F2C94C"></path>
<path d="M16.9279 2.81018C14.3922 5.15235 13.4852 9.08685 15.4509 12.4718L18.8017 18.2422H12.1135C7.63991 18.2422 4.8439 13.4274 7.08071 9.57541L9.26552 5.81305C10.344 3.95576 12.337 2.8114 14.4941 2.81083L16.9279 2.81018Z" fill="#27AE60"></path>
<path d="M20.5667 17.2032L17.2272 11.4523C14.9902 7.6001 17.7868 2.78492 22.2608 2.78552L26.6264 2.7861C28.7837 2.78638 30.7771 3.93078 31.8558 5.78832L33.0995 7.93019C29.7805 6.88996 25.8699 8.07103 23.8941 11.4734L20.5667 17.2032Z" fill="#2F80ED"></path>
<path fill-rule="evenodd" clip-rule="evenodd" d="M26.6269 0.746469C29.517 0.746852 32.1873 2.27992 33.6323 4.76831C35.5212 8.02097 37.4 11.2793 39.2888 14.532C40.9864 17.4553 40.9864 21.0571 39.2888 23.9805C37.4066 27.2218 35.5145 30.4574 33.6323 33.6987C32.1872 36.1871 29.5169 37.7202 26.6269 37.7206C22.5817 37.7211 18.5388 37.7475 14.4939 37.7464C11.6042 37.7456 8.93436 36.2126 7.48954 33.7245C5.60372 30.4771 3.72101 27.2278 1.83522 23.9803C0.137608 21.057 0.137609 17.4552 1.83522 14.5318C3.72025 11.2857 5.6046 8.03927 7.48963 4.79315C8.93446 2.30508 11.6043 0.772064 14.494 0.7713C18.539 0.770607 22.5821 0.745932 26.6269 0.746469ZM16.928 2.81013L14.4945 2.81055C12.5692 2.81106 10.7747 3.72276 9.64438 5.2393C9.50826 5.42193 9.38176 5.61332 9.26584 5.81295L7.08103 9.57531C7.06486 9.60316 7.04895 9.63106 7.0333 9.65901C4.92755 13.4217 7.56645 18.0576 11.8567 18.2365H18.7829V18.2139H18.7858L15.4512 12.4715C13.4856 9.0867 14.3925 5.15232 16.928 2.81013ZM20.562 21.3009C21.479 22.88 22.3925 24.461 23.313 26.038L23.8957 27.0415C26.1329 30.894 23.3356 35.7095 18.8613 35.7083L14.4944 35.7071C12.3374 35.7066 10.3444 34.5622 9.26583 32.7049L8.03528 30.5858C11.2143 31.5771 14.933 30.5322 16.9741 27.4511L16.9747 27.4502C17.0629 27.317 17.148 27.18 17.2298 27.0392L20.562 21.3009ZM18.7694 20.2811L16.2696 24.586C15.9934 25.0615 15.7297 25.5439 15.4535 26.0196C13.2167 29.8715 7.62461 29.8715 5.3878 26.0196L3.61151 22.9607C2.28029 20.6683 2.28029 17.8439 3.61151 15.5515L4.42881 14.144C4.80871 15.829 5.74382 17.3633 7.07703 18.4763C8.34243 19.5327 9.96647 20.2096 11.8149 20.2758C11.9139 20.2793 12.0136 20.2811 12.114 20.2811H18.7694ZM22.3221 20.2532H29.0061C33.4797 20.2532 36.2757 25.0681 34.0389 28.92L31.856 32.6791C30.7773 34.5366 28.7839 35.681 26.6266 35.6813L24.197 35.6816C26.7311 33.3393 27.6371 29.406 25.672 26.0219L22.3221 20.2532ZM20.567 17.203L17.2274 11.4521C14.9905 7.59993 17.7871 2.78475 22.261 2.78535L26.6266 2.78593C28.784 2.78621 30.7774 3.93061 31.856 5.78815L33.0998 7.93003C29.7808 6.88979 25.8701 8.07086 23.8944 11.4732L20.567 17.203ZM25.6706 12.4928C27.9074 8.64097 33.4995 8.64097 35.7363 12.4928L37.5126 15.5517C38.8438 17.8441 38.8438 20.6685 37.5126 22.961L36.6952 24.3686C35.9417 20.9907 32.9576 18.2141 29.0061 18.2141H22.3483L25.6706 12.4928Z" fill="#283841"></path>
<path d="M14.4942 2.8106L16.9277 2.81018C14.3922 5.15237 13.4852 9.08675 15.4508 12.4717L18.7855 18.2141H18.7826V18.2367H16.5444L13.7603 13.4423C11.6679 9.83905 12.1907 5.74365 14.3306 2.81284C14.385 2.81136 14.4395 2.81062 14.4942 2.8106Z" fill="black" fill-opacity="0.22"></path>
<path d="M4.42874 14.1442C4.80865 15.8292 5.74379 17.3635 7.07699 18.4765C8.34239 19.5329 9.96643 20.2098 11.8148 20.2759C11.9139 20.2795 12.0136 20.2813 12.1139 20.2813H18.7694L17.6423 22.2222H12.1139C7.94953 22.2222 4.65556 19.7487 3.16211 16.4646C3.28967 16.1529 3.43946 15.8478 3.61147 15.5516L4.42874 14.1442Z" fill="black" fill-opacity="0.22"></path>
<path d="M8.03516 30.5861C11.2141 31.5772 14.9328 30.5322 16.9739 27.4512L16.9745 27.4503C17.0627 27.3171 17.1478 27.1801 17.2295 27.0393L20.5618 21.301C20.8644 21.8222 21.1667 22.3436 21.469 22.865C21.5421 22.9911 21.6152 23.1171 21.6882 23.2431L18.9201 28.0099C16.8208 31.6251 12.9738 33.2212 9.34004 32.8297C9.31476 32.7885 9.28994 32.7469 9.26558 32.705L8.03516 30.5861Z" fill="black" fill-opacity="0.22"></path>
<path d="M26.7935 35.679C26.7379 35.6806 26.6821 35.6814 26.6262 35.6814L24.1966 35.6817C26.7307 33.3393 27.6368 29.406 25.6717 26.0219L22.3218 20.2533L24.5759 20.2532L27.3624 25.0516C29.4543 28.654 28.9321 32.7484 26.7935 35.679Z" fill="black" fill-opacity="0.22"></path>
<path d="M37.9635 22.0437C37.8356 22.3569 37.6852 22.6635 37.5123 22.9611L36.6949 24.3687C35.9415 20.9908 32.9574 18.2142 29.0059 18.2142H22.3481L23.4752 16.2733H29.0059C33.1757 16.2733 36.4728 18.7531 37.9635 22.0437Z" fill="black" fill-opacity="0.22"></path>
<path d="M31.7938 5.68418C31.8147 5.7186 31.8353 5.75327 31.8556 5.7882L33.0994 7.93008C29.7803 6.88985 25.8697 8.07091 23.8939 11.4733L20.5666 17.2032L19.4395 15.2623L22.2033 10.5029C24.3046 6.88419 28.157 5.28849 31.7938 5.68418Z" fill="black" fill-opacity="0.22"></path>
</svg>